<svg width="320" height="282" viewBox="0 0 320 282" fill="none" xmlns="http://www.w3.org/2000/svg">
<path d="M939 9.5697C836.8 -0.230305 692.8 -5.03033 500.3 7.66967C160.5 30.0697 -265.8 12.3697 -461 1.96966V399.37H939V9.5697Z" fill="#0098E6"/>
<path opacity="0.24" d="M250.5 39C249.672 39 249 38.3284 249 37.5C249 36.6716 249.672 36 250.5 36C251.328 36 252 36.6716 252 37.5C252 38.3284 251.328 39 250.5 39Z" fill="white"/>
<path opacity="0.24" d="M275.5 32C274.672 32 274 31.3284 274 30.5C274 29.6716 274.672 29 275.5 29C276.328 29 277 29.6716 277 30.5C277 31.3284 276.328 32 275.5 32Z" fill="white"/>
<path d="M946 47.9905C842.9 17.9905 315 58.5905 -30.2 61.5905C-257.7 63.4905 -389.5 48.9905 -454 38.5905V345.69H946V47.9905Z" fill="#0075C0"/>
<path opacity="0.24" d="M192.5 80C194.433 80 196 78.433 196 76.5C196 74.567 194.433 73 192.5 73C190.567 73 189 74.567 189 76.5C189 78.433 190.567 80 192.5 80Z" fill="white"/>
<path opacity="0.24" d="M24.5 35C23.6716 35 23 34.3284 23 33.5C23 32.6716 23.6716 32 24.5 32C25.3284 32 26 32.6716 26 33.5C26 34.3284 25.3284 35 24.5 35Z" fill="white"/>
<path opacity="0.24" d="M100.5 71C99.6716 71 99 70.3284 99 69.5C99 68.6716 99.6716 68 100.5 68C101.328 68 102 68.6716 102 69.5C102 70.3284 101.328 71 100.5 71Z" fill="white"/>
<path opacity="0.24" d="M55.5 49C57.433 49 59 47.433 59 45.5C59 43.567 57.433 42 55.5 42C53.567 42 52 43.567 52 45.5C52 47.433 53.567 49 55.5 49Z" fill="white"/>
<path d="M246 65.9565C246 62.1014 242.879 59 239 59C235.121 59 232 62.1014 232 65.9565C232 67.6377 232.583 69.1739 233.575 70.3623H234.1V76.5362C234.1 76.7971 234.304 77 234.567 77H235.121C235.383 77 235.587 76.7971 235.587 76.5362V70.3623H236.288V76.5362C236.288 76.7971 236.492 77 236.754 77H237.308C237.571 77 237.775 76.7971 237.775 76.5362V70.3623H239.029V76.5362C239.029 76.7971 239.233 77 239.496 77H240.05C240.312 77 240.517 76.7971 240.517 76.5362V70.3623H241.538V76.5362C241.538 76.7971 241.742 77 242.004 77H242.558C242.821 77 243.025 76.7971 243.025 76.5362V70.3623H244.483C245.417 69.1739 246 67.6377 246 65.9565Z" fill="#01163F"/>
<path opacity="0.24" d="M305.5 66C307.433 66 309 64.433 309 62.5C309 60.567 307.433 59 305.5 59C303.567 59 302 60.567 302 62.5C302 64.433 303.567 66 305.5 66Z" fill="white"/>
<path d="M435 85.1111C419.423 83.1966 383.058 84.4829 363.56 83.3162C323.811 80.9231 238.943 95.8803 53.0914 98.8718C-95.536 101.265 -257.914 87.594 -317 82V159H435V85.1111Z" fill="#00549E"/>
<path d="M95 91.9565C95 88.1014 91.8792 85 88 85C84.1208 85 81 88.1014 81 91.9565C81 93.6377 81.5833 95.1739 82.575 96.3623H83.1V102.536C83.1 102.797 83.3042 103 83.5667 103H84.1208C84.3833 103 84.5875 102.797 84.5875 102.536V96.3623H85.2875V102.536C85.2875 102.797 85.4917 103 85.7542 103H86.3083C86.5708 103 86.775 102.797 86.775 102.536V96.3623H88.0292V102.536C88.0292 102.797 88.2333 103 88.4958 103H89.05C89.3125 103 89.5167 102.797 89.5167 102.536V96.3623H90.5375V102.536C90.5375 102.797 90.7417 103 91.0042 103H91.5583C91.8208 103 92.025 102.797 92.025 102.536V96.3623H93.4833C94.4167 95.1739 95 93.6377 95 91.9565Z" fill="#01163F"/>
<path d="M319.535 95.7276C294.963 104.463 251.098 138.985 217.031 165H415.695V79.8527C395.035 80.8402 349.423 85.0937 319.535 95.7276Z" fill="#042D58"/>
<path d="M166.141 98.8799C165.039 98.8799 164.166 99.7534 164.166 100.855V103.399C164.166 105.336 162.571 106.931 160.634 106.931H157.899C157.937 106.627 157.937 106.324 157.937 106.02V81.5238C157.937 80.4225 157.064 79.549 155.962 79.549C154.861 79.549 153.987 80.4225 153.987 81.5238V93.9047H151.557C150.569 93.9047 149.772 93.1072 149.772 92.1197V86.1951C149.772 85.0938 148.898 84.2203 147.797 84.2203C146.696 84.2203 145.822 85.0938 145.822 86.1951V92.1197C145.822 95.2719 148.405 97.8545 151.557 97.8545H153.987V106.02C153.987 110.653 150.228 114.413 145.594 114.413H137.353V108.261H139.48C142.214 108.261 144.455 106.02 144.455 103.285V98.5381C144.455 97.4367 143.581 96.5632 142.48 96.5632C141.379 96.5632 140.505 97.4367 140.505 98.5381V103.285C140.505 103.855 140.049 104.311 139.48 104.311H137.353V93.1832C137.353 92.0818 136.479 91.2083 135.378 91.2083C134.277 91.2083 133.403 92.0818 133.403 93.1832V98.4621H130.859C129.567 98.4621 128.504 97.3987 128.504 96.1075V89.2714C128.504 88.17 127.631 87.2965 126.529 87.2965C125.428 87.2965 124.554 88.17 124.554 89.2714V96.1075C124.554 99.5635 127.365 102.412 130.859 102.412H133.403V108.261H126.301C122.238 108.261 118.896 104.956 118.896 100.855V96.4872C118.896 95.3859 118.022 94.5124 116.921 94.5124C115.819 94.5124 114.946 95.3859 114.946 96.4872V100.855C114.946 107.121 120.035 112.21 126.301 112.21H133.403V135.529C133.403 136.63 134.277 137.504 135.378 137.504C136.479 137.504 137.353 136.63 137.353 135.529V118.325H145.594C150.683 118.325 155.051 115.249 156.95 110.843H160.634C164.735 110.843 168.077 107.501 168.077 103.399V100.855C168.115 99.7534 167.242 98.8799 166.141 98.8799Z" fill="#03213D"/>
<path d="M48.9779 89.4993H52.0541V115.628H56.8773V106.096H60.5232C65.7642 106.096 70.0178 101.842 70.0178 96.6012V93.3351C70.0178 91.9299 68.8785 90.8285 67.5112 90.8285C66.1061 90.8285 65.0047 91.9679 65.0047 93.3351V96.6012C65.0047 99.0698 62.9918 101.083 60.5232 101.083H57.0292C57.0672 100.703 57.0672 100.323 57.0672 99.9433V68.7252C57.0672 67.32 55.9279 66.2186 54.5607 66.2186C53.1555 66.2186 52.0541 67.358 52.0541 68.7252V84.4862H48.9779C47.7246 84.4862 46.6992 83.4607 46.6992 82.2075V74.6498C46.6992 73.2446 45.5598 72.1432 44.1926 72.1432C42.7874 72.1432 41.686 73.2826 41.686 74.6498V82.2075C41.686 86.2332 44.9522 89.4993 48.9779 89.4993Z" fill="#03213D"/>
<path d="M249.655 110.957C248.211 110.957 247.034 112.134 247.034 113.577V119.35C247.034 124.781 242.629 129.187 237.198 129.187H231.197V122.161H234.007C237.653 122.161 240.616 119.198 240.616 115.552V109.248C240.616 107.805 239.438 106.627 237.995 106.627C236.552 106.627 235.375 107.805 235.375 109.248V115.552C235.375 116.312 234.767 116.92 234.007 116.92H231.197V102.146C231.197 100.703 230.02 99.5255 228.577 99.5255C227.133 99.5255 225.956 100.703 225.956 102.146V109.21H222.538C220.829 109.21 219.424 107.805 219.424 106.096V96.981C219.424 95.5378 218.246 94.3605 216.803 94.3605C215.36 94.3605 214.183 95.5378 214.183 96.981V106.096C214.183 110.691 217.943 114.451 222.538 114.451H225.956V122.199H216.499C211.069 122.199 206.663 117.793 206.663 112.362V106.589C206.663 105.146 205.486 103.969 204.043 103.969C202.599 103.969 201.422 105.146 201.422 106.589V112.362C201.422 120.679 208.182 127.44 216.499 127.44H225.956V158.468C225.956 159.911 227.133 161.088 228.577 161.088C230.02 161.088 231.197 159.911 231.197 158.468V135.605V134.428H237.198C245.515 134.428 252.275 127.667 252.275 119.35V113.577C252.275 112.134 251.098 110.957 249.655 110.957Z" fill="#03213D"/>
<path d="M2.26417 118.363C2.26417 118.363 -8.63559 107.653 -4.19213 101.69C0.251322 95.7276 -11.7878 95.2719 -6.43285 88.8536C-1.07791 82.4353 -15.5856 75.7131 -6.66072 71.4595C2.26417 67.244 4.42893 75.2574 2.87183 80.8781C1.31472 86.4989 10.3915 86.8028 7.92293 93.8667C5.45434 100.893 9.89781 100.893 9.93578 107.007C9.97376 113.122 6.13796 118.097 6.13796 118.097L2.26417 118.363Z" fill="#03213D"/>
<path d="M7.92304 115.135C7.92304 115.135 1.27685 97.8924 9.13834 93.5249C16.9998 89.1574 3.9733 82.6251 13.0881 78.2576C22.2029 73.8901 9.59409 59.1926 21.5193 59.0027C33.4824 58.8128 31.8493 68.7251 27.2919 74.118C22.7725 79.5109 32.6089 84.4101 26.3805 90.9424C20.152 97.4746 25.0512 99.6774 22.0509 106.438C19.0886 113.16 12.3665 116.768 12.3665 116.768L7.92304 115.135Z" fill="#03213D"/>
<path d="M287.975 125.047C287.975 125.047 273.201 114.755 277.151 106.931C281.101 99.1077 267.011 100.969 271.986 92.4615C276.961 83.9544 258.731 78.9793 268.264 72.2951C277.796 65.6109 281.898 74.4978 281.215 81.3339C280.531 88.17 291.127 86.7648 289.684 95.4238C288.203 104.121 293.406 103.209 294.659 110.273C295.912 117.337 292.456 123.908 292.456 123.908L287.975 125.047Z" fill="#042D58"/>
<path d="M283.265 127.591C283.265 127.591 267.428 125.047 267.58 117.223C267.732 109.4 257.136 116.35 257.858 107.577C258.58 98.8038 241.983 101.88 247.072 92.8033C252.161 83.7265 258.883 89.3093 260.972 95.0819C263.061 100.855 271.036 95.6136 273.201 103.133C275.366 110.653 279.202 107.957 282.924 113.16C286.683 118.363 286.418 124.971 286.418 124.971L283.265 127.591Z" fill="#042D58"/>
<path d="M133.947 116.736C27.4206 109.972 -64.4568 92.9074 -115 82V162H0V282H320V162H321C278.594 142.656 215.63 121.867 133.947 116.736Z" fill="#03213D"/>
<path d="M133.947 116.736C27.4206 109.972 -64.4568 92.9074 -115 82V162H0V282H320V162H321C278.594 142.656 215.63 121.867 133.947 116.736Z" stroke="#03213D"/>
</svg>
