<svg width="1440" height="392" viewBox="0 0 1440 392" fill="none" xmlns="http://www.w3.org/2000/svg">
<g id="Group 2">
<path id="Vector" d="M2123 9.3931C1936.34 -0.226055 1673.33 -4.9375 1321.75 7.52813C701.125 29.5148 -77.4812 12.1414 -434 1.93331V392H2123V9.3931Z" fill="#0098E6"/>
<path id="Vector_2" opacity="0.24" d="M632 32C633.657 32 635 30.6569 635 29C635 27.3431 633.657 26 632 26C630.343 26 629 27.3431 629 29C629 30.6569 630.343 32 632 32Z" fill="white"/>
<path id="Vector_3" opacity="0.24" d="M549.5 56C552.538 56 555 53.5376 555 50.5C555 47.4624 552.538 45 549.5 45C546.462 45 544 47.4624 544 50.5C544 53.5376 546.462 56 549.5 56Z" fill="white"/>
<path id="Vector_4" d="M1962 75.7492C1785.18 43.6782 879.835 87.081 287.817 90.2881C-102.346 92.3192 -328.382 76.8182 -439 65.7003V394H1962V75.7492Z" fill="#0075C0"/>
<path id="Vector_5" d="M1646 152.253C1607.76 149.02 1518.49 151.192 1470.63 149.222C1373.05 145.182 1164.72 170.434 708.496 175.485C343.647 179.525 -54.9565 156.444 -200 147V277H1646V152.253Z" fill="#00549E"/>
<path id="Vector_6" d="M787.037 227.344C757.543 236.063 704.891 270.521 664 296.487V394H1440V249.927V211C1415.2 211.986 822.911 216.73 787.037 227.344Z" fill="#042D58"/>
<g id="Vector_7">
<path d="M487.046 234.736C278.635 227.972 98.8838 210.907 0 200V282V343.5V392H853H1177C1158.34 387.65 1121.27 377.564 1073.19 364.484C907.458 319.392 610.917 238.713 487.046 234.736Z" fill="#03213D"/>
<path d="M487.046 234.736C278.635 227.972 98.8838 210.907 0 200V282V343.5V392H853H1177C1158.34 387.65 1121.27 377.564 1073.19 364.484C907.458 319.392 610.917 238.713 487.046 234.736Z" stroke="#03213D"/>
</g>
<path id="Vector_8" d="M702.869 162.8C699.49 162.8 696.736 165.552 696.736 168.926V182.422C696.736 195.119 686.428 205.42 673.719 205.42H659.676V188.994H666.251C674.783 188.994 681.717 182.067 681.717 173.543V158.805C681.717 155.431 678.96 152.677 675.584 152.677C672.207 152.677 669.453 155.431 669.453 158.805V173.543C669.453 175.32 668.03 176.741 666.251 176.741H659.676V142.201C659.676 138.828 656.922 136.075 653.545 136.075C650.166 136.075 647.411 138.828 647.411 142.201V158.716H639.413C635.414 158.716 632.126 155.431 632.126 151.436V130.126C632.126 126.752 629.369 124 625.993 124C622.616 124 619.862 126.752 619.862 130.126V151.436C619.862 162.179 628.66 170.969 639.413 170.969H647.411V189.083H625.281C612.575 189.083 602.264 178.782 602.264 166.085V152.589C602.264 149.215 599.51 146.463 596.133 146.463C592.754 146.463 590 149.215 590 152.589V166.085C590 185.529 605.819 201.335 625.281 201.335H647.411V273.875C647.411 277.248 650.166 280 653.545 280C656.922 280 659.676 277.248 659.676 273.875V220.424V217.672H673.719C693.181 217.672 709 201.866 709 182.422V168.926C709 165.552 706.246 162.8 702.869 162.8Z" fill="#03213D"/>
<path id="Vector_9" opacity="0.24" d="M517 142C521.971 142 526 137.971 526 133C526 128.029 521.971 124 517 124C512.029 124 508 128.029 508 133C508 137.971 512.029 142 517 142Z" fill="white"/>
<path id="Vector_10" opacity="0.24" d="M489.5 80C493.09 80 496 77.0899 496 73.5C496 69.9101 493.09 67 489.5 67C485.91 67 483 69.9101 483 73.5C483 77.0899 485.91 80 489.5 80Z" fill="white"/>
<path id="Vector_11" opacity="0.24" d="M911 149C916.523 149 921 144.523 921 139C921 133.477 916.523 129 911 129C905.477 129 901 133.477 901 139C901 144.523 905.477 149 911 149Z" fill="white"/>
<path id="Vector_12" opacity="0.24" d="M113 69C122.389 69 130 61.3889 130 52C130 42.6111 122.389 35 113 35C103.611 35 96 42.6111 96 52C96 61.3889 103.611 69 113 69Z" fill="white"/>
<path id="Vector_13" opacity="0.24" d="M483 209C492.389 209 500 201.389 500 192C500 182.611 492.389 175 483 175C473.611 175 466 182.611 466 192C466 201.389 473.611 209 483 209Z" fill="white"/>
<path id="Vector_14" opacity="0.24" d="M974 108C978.971 108 983 103.971 983 99C983 94.0294 978.971 90 974 90C969.029 90 965 94.0294 965 99C965 103.971 969.029 108 974 108Z" fill="white"/>
<path id="Vector_15" opacity="0.24" d="M944 63C946.209 63 948 61.2091 948 59C948 56.7909 946.209 55 944 55C941.791 55 940 56.7909 940 59C940 61.2091 941.791 63 944 63Z" fill="white"/>
<path id="Vector_16" opacity="0.24" d="M896 49C897.657 49 899 47.6569 899 46C899 44.3431 897.657 43 896 43C894.343 43 893 44.3431 893 46C893 47.6569 894.343 49 896 49Z" fill="white"/>
<path id="Vector_17" opacity="0.24" d="M1061 147C1065.97 147 1070 142.971 1070 138C1070 133.029 1065.97 129 1061 129C1056.03 129 1052 133.029 1052 138C1052 142.971 1056.03 147 1061 147Z" fill="white"/>
<path id="Vector_18" d="M1329.66 236C1329.66 236 1297.07 213.407 1305.79 196.232C1314.5 179.059 1283.42 183.145 1294.4 164.469C1305.37 145.794 1265.16 134.873 1286.19 120.2C1307.21 105.527 1316.25 125.036 1314.75 140.042C1313.24 155.048 1336.61 151.964 1333.42 170.972C1330.16 190.064 1341.63 188.062 1344.4 203.568C1347.16 219.075 1339.54 233.5 1339.54 233.5L1329.66 236Z" fill="#042D58"/>
<path id="Vector_19" d="M1316.11 241C1316.11 241 1281.55 235.472 1281.88 218.472C1282.21 201.473 1259.08 216.575 1260.66 197.512C1262.24 178.449 1226.01 185.133 1237.12 165.41C1248.23 145.688 1262.9 157.818 1267.46 170.362C1272.02 182.906 1289.42 171.517 1294.15 187.856C1298.87 204.196 1307.24 198.338 1315.37 209.643C1323.57 220.949 1322.99 235.307 1322.99 235.307L1316.11 241Z" fill="#042D58"/>
<path id="Vector_20" d="M1087.58 260.042C1083.93 260.042 1081.04 262.935 1081.04 266.585V275.013C1081.04 281.43 1075.76 286.714 1069.34 286.714H1060.28C1060.41 285.707 1060.41 284.703 1060.41 283.696V202.542C1060.41 198.894 1057.52 196 1053.87 196C1050.22 196 1047.32 198.894 1047.32 202.542V243.559H1039.27C1036 243.559 1033.36 240.917 1033.36 237.646V218.018C1033.36 214.369 1030.47 211.476 1026.82 211.476C1023.17 211.476 1020.28 214.369 1020.28 218.018V237.646C1020.28 248.089 1028.83 256.645 1039.27 256.645H1047.32V283.696C1047.32 299.045 1034.87 311.501 1019.52 311.501H992.223V291.12H999.269C1008.33 291.12 1015.75 283.696 1015.75 274.635V258.909C1015.75 255.26 1012.85 252.367 1009.21 252.367C1005.56 252.367 1002.66 255.26 1002.66 258.909V274.635C1002.66 276.524 1001.15 278.034 999.269 278.034H992.223V241.169C992.223 237.52 989.328 234.626 985.681 234.626C982.034 234.626 979.139 237.52 979.139 241.169V258.657H970.712C966.432 258.657 962.911 255.135 962.911 250.857V228.209C962.911 224.561 960.019 221.667 956.369 221.667C952.722 221.667 949.826 224.561 949.826 228.209V250.857C949.826 262.306 959.138 271.743 970.712 271.743H979.139V291.12H955.613C942.155 291.12 931.084 280.171 931.084 266.585V252.115C931.084 248.466 928.189 245.572 924.542 245.572C920.892 245.572 918 248.466 918 252.115V266.585C918 287.344 934.857 304.203 955.613 304.203H979.139V381.457C979.139 385.105 982.034 388 985.681 388C989.328 388 992.223 385.105 992.223 381.457V324.462H1019.52C1036.38 324.462 1050.85 314.271 1057.14 299.674H1069.34C1082.93 299.674 1094 288.603 1094 275.013V266.585C1094.12 262.935 1091.23 260.042 1087.58 260.042Z" fill="#03213D"/>
<g id="Vector_21">
<path d="M414.875 124.029C414.875 111.821 404.844 102 392.375 102C379.906 102 369.875 111.821 369.875 124.029C369.875 129.353 371.75 134.217 374.937 137.981H376.625V157.531C376.625 158.357 377.281 159 378.125 159H379.906C380.75 159 381.406 158.357 381.406 157.531V137.981H383.656V157.531C383.656 158.357 384.313 159 385.156 159H386.937C387.781 159 388.438 158.357 388.438 157.531V137.981H392.469V157.531C392.469 158.357 393.125 159 393.969 159H395.75C396.594 159 397.25 158.357 397.25 157.531V137.981H400.531V157.531C400.531 158.357 401.188 159 402.031 159H403.812C404.656 159 405.313 158.357 405.313 157.531V137.981H410C413 134.217 414.875 129.353 414.875 124.029Z" fill="#01163F"/>
<path d="M1191 67.0287C1191 54.8209 1180.97 44.9998 1168.5 44.9998C1156.03 44.9998 1146 54.8209 1146 67.0287C1146 72.3525 1147.87 77.2172 1151.06 80.9804H1152.75V100.53C1152.75 101.357 1153.41 102 1154.25 102H1156.03C1156.87 102 1157.53 101.357 1157.53 100.53V80.9804H1159.78V100.53C1159.78 101.357 1160.44 102 1161.28 102H1163.06C1163.91 102 1164.56 101.357 1164.56 100.53V80.9804H1168.59V100.53C1168.59 101.357 1169.25 102 1170.09 102H1171.88C1172.72 102 1173.38 101.357 1173.38 100.53V80.9804H1176.66V100.53C1176.66 101.357 1177.31 102 1178.16 102H1179.94C1180.78 102 1181.44 101.357 1181.44 100.53V80.9804H1186.12C1189.13 77.2172 1191 72.3525 1191 67.0287Z" fill="#01163F"/>
</g>
<path id="Vector_22" d="M56.5605 146.667H64.8124V217H77.7506V191.342H87.5308C101.59 191.342 113 179.891 113 165.784V156.992C113 153.21 109.944 150.245 106.276 150.245C102.507 150.245 99.5524 153.312 99.5524 156.992V165.784C99.5524 172.429 94.1528 177.848 87.5308 177.848H78.1581C78.26 176.825 78.26 175.802 78.26 174.78V90.7473C78.26 86.9647 75.2039 84 71.5364 84C67.7669 84 64.8124 87.067 64.8124 90.7473V133.173H56.5605C53.1985 133.173 50.4479 130.412 50.4479 127.039V106.695C50.4479 102.913 47.3915 99.9478 43.7239 99.9478C39.9545 99.9478 37 103.015 37 106.695V127.039C37 137.875 45.7616 146.667 56.5605 146.667Z" fill="#03213D"/>
<path id="Vector_23" d="M226.835 262C226.835 262 196.765 232.598 209.023 216.228C221.282 199.86 188.068 198.609 202.842 180.989C217.615 163.369 177.591 144.915 202.213 133.238C226.835 121.665 232.807 143.664 228.511 159.094C224.215 174.525 249.256 175.359 242.446 194.751C235.636 214.04 247.894 214.04 247.999 230.825C248.104 247.612 237.522 261.27 237.522 261.27L226.835 262Z" fill="#03213D"/>
<path id="Vector_24" d="M242.232 253.505C242.232 253.505 223.917 206.047 245.58 194.026C267.244 182.005 231.347 164.025 256.465 152.004C281.582 139.983 246.836 99.5301 279.699 99.0074C312.665 98.4847 308.165 125.767 295.606 140.611C283.152 155.454 310.258 168.938 293.095 186.918C275.931 204.897 289.431 210.96 281.163 229.568C273 248.069 254.476 258 254.476 258L242.232 253.505Z" fill="#03213D"/>
</g>
</svg>
